<svg width="135" height="137" viewBox="0 0 135 137" fill="none" xmlns="http://www.w3.org/2000/svg">
<path fill-rule="evenodd" clip-rule="evenodd" d="M39.124 105.022C37.924 105.022 36.7165 104.639 35.6965 103.859C33.2365 101.962 32.7715 98.4291 34.669 95.9691L57.1165 66.7941C58.0315 65.6016 59.389 64.8291 60.874 64.6416C62.389 64.4466 63.874 64.8666 65.0515 65.8041L86.2015 82.4166L104.704 58.5441C106.609 56.0766 110.134 55.6191 112.594 57.5391C115.054 59.4441 115.504 62.9766 113.599 65.4291L91.624 93.7791C90.709 94.9641 89.359 95.7366 87.874 95.9166C86.374 96.1191 84.889 95.6841 83.704 94.7616L62.569 78.1566L43.5865 102.824C42.4765 104.264 40.8115 105.022 39.124 105.022Z" fill="#E3E5E8"/>
<mask id="mask0" mask-type="alpha" maskUnits="userSpaceOnUse" x="114" y="0" width="41" height="41">
<path fill-rule="evenodd" clip-rule="evenodd" d="M114.715 0.000732422H154.795V40.0875H114.715V0.000732422Z" fill="white"/>
</mask>
<g mask="url(#mask0)">
<path fill-rule="evenodd" clip-rule="evenodd" d="M134.755 11.25C129.91 11.25 125.965 15.1875 125.965 20.04C125.965 24.885 129.91 28.8375 134.755 28.8375C139.6 28.8375 143.545 24.885 143.545 20.04C143.545 15.1875 139.6 11.25 134.755 11.25ZM134.755 40.0875C123.708 40.0875 114.715 31.095 114.715 20.04C114.715 8.985 123.708 0 134.755 0C145.81 0 154.795 8.985 154.795 20.04C154.795 31.095 145.81 40.0875 134.755 40.0875Z" fill="#E3E5E8"/>
</g>
<mask id="mask1" mask-type="alpha" maskUnits="userSpaceOnUse" x="0" y="6" width="149" height="150">
<path fill-rule="evenodd" clip-rule="evenodd" d="M0 6.31567H148.964V155.273H0V6.31567Z" fill="white"/>
</mask>
<g mask="url(#mask1)">
<path fill-rule="evenodd" clip-rule="evenodd" d="M106.747 155.273H42.2175C16.965 155.273 0 137.536 0 111.136V50.5207C0 24.0832 16.965 6.31567 42.2175 6.31567H96.7275C99.8325 6.31567 102.353 8.83567 102.353 11.9407C102.353 15.0457 99.8325 17.5657 96.7275 17.5657H42.2175C23.4075 17.5657 11.25 30.4957 11.25 50.5207V111.136C11.25 131.423 23.115 144.023 42.2175 144.023H106.747C125.557 144.023 137.715 131.116 137.715 111.136V58.3432C137.715 55.2382 140.235 52.7182 143.34 52.7182C146.445 52.7182 148.965 55.2382 148.965 58.3432V111.136C148.965 137.536 132 155.273 106.747 155.273Z" fill="#E3E5E8"/>
</g>
</svg>
