<svg width="48" height="48" viewBox="0 0 48 48" fill="none" xmlns="http://www.w3.org/2000/svg">
<rect width="48" height="48" rx="12" fill="#FF9957"/>
<path fill-rule="evenodd" clip-rule="evenodd" d="M23.9937 31.2356C23.4417 31.2356 22.9937 30.7876 22.9937 30.2356V26.8529C22.9937 26.3009 23.4417 25.8529 23.9937 25.8529C24.5457 25.8529 24.9937 26.3009 24.9937 26.8529V30.2356C24.9937 30.7876 24.5457 31.2356 23.9937 31.2356" fill="white"/>
<mask id="mask0" mask-type="alpha" maskUnits="userSpaceOnUse" x="10" y="14" width="28" height="14">
<path fill-rule="evenodd" clip-rule="evenodd" d="M10.667 14.1067H37.3201V27.8547H10.667V14.1067Z" fill="white"/>
</mask>
<g mask="url(#mask0)">
<path fill-rule="evenodd" clip-rule="evenodd" d="M12.667 23.1907C15.835 24.912 19.8297 25.8547 23.987 25.8547C28.1523 25.8547 32.151 24.912 35.3203 23.1907V19.188C35.3203 17.488 33.9457 16.1067 32.2537 16.1067H15.747C14.0483 16.1067 12.667 17.4827 12.667 19.1747V23.1907ZM23.987 27.8547C19.2603 27.8547 14.7043 26.7107 11.1617 24.636C10.855 24.4574 10.667 24.1294 10.667 23.7734V19.1747C10.667 16.38 12.9457 14.1067 15.747 14.1067H32.2537C35.0483 14.1067 37.3203 16.3854 37.3203 19.188V23.7734C37.3203 24.1294 37.131 24.4574 36.8257 24.636C33.283 26.7107 28.723 27.8547 23.987 27.8547V27.8547Z" fill="white"/>
</g>
<mask id="mask1" mask-type="alpha" maskUnits="userSpaceOnUse" x="18" y="10" width="12" height="7">
<path fill-rule="evenodd" clip-rule="evenodd" d="M18.3271 10.6669H29.6605V16.1015H18.3271V10.6669Z" fill="white"/>
</mask>
<g mask="url(#mask1)">
<path fill-rule="evenodd" clip-rule="evenodd" d="M28.6605 16.1015C28.1085 16.1015 27.6605 15.6535 27.6605 15.1015V14.6135C27.6605 13.5401 26.7871 12.6668 25.7138 12.6668H22.2738C21.2005 12.6668 20.3271 13.5401 20.3271 14.6135V15.1015C20.3271 15.6535 19.8791 16.1015 19.3271 16.1015C18.7751 16.1015 18.3271 15.6535 18.3271 15.1015V14.6135C18.3271 12.4375 20.0978 10.6668 22.2738 10.6668H25.7138C27.8898 10.6668 29.6605 12.4375 29.6605 14.6135V15.1015C29.6605 15.6535 29.2125 16.1015 28.6605 16.1015" fill="white"/>
</g>
<path fill-rule="evenodd" clip-rule="evenodd" d="M31.7264 36.9869H16.2598C13.4931 36.9869 11.1638 34.8256 10.9544 32.0656L10.7011 28.7203C10.6598 28.1696 11.0731 27.6883 11.6238 27.6469C12.1771 27.6269 12.6544 28.0176 12.6971 28.5696L12.9491 31.9136C13.0798 33.6363 14.5331 34.9869 16.2598 34.9869H31.7264C33.4531 34.9869 34.9078 33.6363 35.0371 31.9136L35.2904 28.5696C35.3331 28.0176 35.8224 27.6256 36.3638 27.6469C36.9144 27.6883 37.3264 28.1696 37.2851 28.7203L37.0318 32.0656C36.8224 34.8256 34.4931 36.9869 31.7264 36.9869" fill="white"/>
</svg>
