<svg width="48" height="48" viewBox="0 0 48 48" fill="none" xmlns="http://www.w3.org/2000/svg">
<rect width="48" height="48" rx="12" fill="#FFBD00"/>
<path fill-rule="evenodd" clip-rule="evenodd" d="M28.9543 30.6316H19.3276C18.7756 30.6316 18.3276 30.1836 18.3276 29.6316C18.3276 29.0796 18.7756 28.6316 19.3276 28.6316H28.9543C29.5063 28.6316 29.9543 29.0796 29.9543 29.6316C29.9543 30.1836 29.5063 30.6316 28.9543 30.6316" fill="white"/>
<path fill-rule="evenodd" clip-rule="evenodd" d="M28.9543 25.0496H19.3276C18.7756 25.0496 18.3276 24.6016 18.3276 24.0496C18.3276 23.4976 18.7756 23.0496 19.3276 23.0496H28.9543C29.5063 23.0496 29.9543 23.4976 29.9543 24.0496C29.9543 24.6016 29.5063 25.0496 28.9543 25.0496" fill="white"/>
<path fill-rule="evenodd" clip-rule="evenodd" d="M23.0005 19.4805H19.3271C18.7751 19.4805 18.3271 19.0325 18.3271 18.4805C18.3271 17.9285 18.7751 17.4805 19.3271 17.4805H23.0005C23.5525 17.4805 24.0005 17.9285 24.0005 18.4805C24.0005 19.0325 23.5525 19.4805 23.0005 19.4805" fill="white"/>
<mask id="mask0" mask-type="alpha" maskUnits="userSpaceOnUse" x="12" y="10" width="25" height="28">
<path fill-rule="evenodd" clip-rule="evenodd" d="M12 10.6669H36.2196V37.2133H12V10.6669Z" fill="white"/>
</mask>
<g mask="url(#mask0)">
<path fill-rule="evenodd" clip-rule="evenodd" d="M29.2115 12.6667L18.9595 12.672C15.8555 12.6907 13.9995 14.6107 13.9995 17.8094V30.0707C13.9995 33.2907 15.8728 35.2134 19.0075 35.2134L29.2595 35.2094C32.3635 35.1907 34.2195 33.268 34.2195 30.0707V17.8094C34.2195 14.5894 32.3475 12.6667 29.2115 12.6667ZM19.0088 37.2134C14.8168 37.2134 11.9995 34.3427 11.9995 30.0707V17.8094C11.9995 13.4987 14.7288 10.6974 18.9528 10.672L29.2102 10.6667H29.2115C33.4035 10.6667 36.2195 13.5374 36.2195 17.8094V30.0707C36.2195 34.38 33.4902 37.1827 29.2662 37.2094L19.0088 37.2134Z" fill="white"/>
</g>
</svg>
