<svg width="48" height="48" viewBox="0 0 48 48" fill="none" xmlns="http://www.w3.org/2000/svg">
<rect width="48" height="48" rx="12" fill="#57ABFF"/>
<path fill-rule="evenodd" clip-rule="evenodd" d="M17.6217 29.3372C17.4084 29.3372 17.1937 29.2692 17.0124 29.1306C16.575 28.7932 16.4924 28.1652 16.8297 27.7279L20.8204 22.5412C20.983 22.3292 21.2244 22.1919 21.4884 22.1586C21.7577 22.1239 22.0217 22.1986 22.2311 22.3652L25.991 25.3186L29.2804 21.0746C29.619 20.6359 30.2457 20.5546 30.683 20.8959C31.1204 21.2346 31.2004 21.8626 30.8617 22.2986L26.955 27.3386C26.7924 27.5492 26.5524 27.6866 26.2884 27.7186C26.0217 27.7546 25.7577 27.6772 25.5471 27.5132L21.7897 24.5612L18.415 28.9466C18.2177 29.2026 17.9217 29.3372 17.6217 29.3372" fill="white"/>
<mask id="mask0" mask-type="alpha" maskUnits="userSpaceOnUse" x="31" y="10" width="8" height="8">
<path fill-rule="evenodd" clip-rule="evenodd" d="M31.0601 10.6668H38.1854V17.7933H31.0601V10.6668Z" fill="white"/>
</mask>
<g mask="url(#mask0)">
<path fill-rule="evenodd" clip-rule="evenodd" d="M34.6227 12.6667C33.7614 12.6667 33.0601 13.3667 33.0601 14.2294C33.0601 15.0907 33.7614 15.7934 34.6227 15.7934C35.4841 15.7934 36.1854 15.0907 36.1854 14.2294C36.1854 13.3667 35.4841 12.6667 34.6227 12.6667M34.6227 17.7934C32.6587 17.7934 31.0601 16.1947 31.0601 14.2294C31.0601 12.264 32.6587 10.6667 34.6227 10.6667C36.5881 10.6667 38.1854 12.264 38.1854 14.2294C38.1854 16.1947 36.5881 17.7934 34.6227 17.7934" fill="white"/>
</g>
<mask id="mask1" mask-type="alpha" maskUnits="userSpaceOnUse" x="10" y="11" width="28" height="28">
<path fill-rule="evenodd" clip-rule="evenodd" d="M10.6665 11.7895H37.149V38.2708H10.6665V11.7895Z" fill="white"/>
</mask>
<g mask="url(#mask1)">
<path fill-rule="evenodd" clip-rule="evenodd" d="M29.6438 38.2708H18.1718C13.6825 38.2708 10.6665 35.1175 10.6665 30.4242V19.6482C10.6665 14.9482 13.6825 11.7895 18.1718 11.7895H27.8625C28.4145 11.7895 28.8625 12.2375 28.8625 12.7895C28.8625 13.3415 28.4145 13.7895 27.8625 13.7895H18.1718C14.8278 13.7895 12.6665 16.0882 12.6665 19.6482V30.4242C12.6665 34.0308 14.7758 36.2708 18.1718 36.2708H29.6438C32.9878 36.2708 35.1492 33.9762 35.1492 30.4242V21.0388C35.1492 20.4868 35.5972 20.0388 36.1492 20.0388C36.7012 20.0388 37.1492 20.4868 37.1492 21.0388V30.4242C37.1492 35.1175 34.1332 38.2708 29.6438 38.2708" fill="white"/>
</g>
</svg>
