<svg width="180" height="60" viewBox="0 0 180 60" fill="none" xmlns="http://www.w3.org/2000/svg">
<g clip-path="url(#clip0)">
<path d="M165.666 0.000195H14.3422C13.7906 0.000195 13.2456 0.000195 12.6955 0.003195C12.235 0.006195 11.7781 0.01491 11.3132 0.022245C10.3031 0.0340977 9.29543 0.122709 8.29888 0.28731C7.30373 0.455494 6.33976 0.772569 5.43956 1.22781C4.54046 1.6869 3.71893 2.28345 3.00477 2.9958C2.28686 3.70615 1.68842 4.52722 1.23248 5.42744C0.775271 6.32586 0.458244 7.2886 0.292343 8.28242C0.124866 9.27497 0.0347448 10.279 0.0227888 11.2854C0.00882972 11.7453 0.00735559 12.2067 0 12.6667V47.3381C0.00735559 47.8039 0.00882972 48.2551 0.0227888 48.721C0.0347485 49.7273 0.12487 50.7313 0.292343 51.7238C0.457785 52.7182 0.774831 53.6815 1.23248 54.5803C1.68821 55.4776 2.28673 56.2953 3.00477 57.0017C3.71622 57.7172 4.53828 58.3142 5.43956 58.7698C6.33975 59.2262 7.30362 59.5452 8.29888 59.716C9.2956 59.8792 10.3032 59.9679 11.3132 59.9812C11.7781 59.9914 12.235 59.9972 12.6955 59.9972C13.2456 60.0002 13.7906 60.0002 14.3422 60.0002H165.666C166.207 60.0002 166.756 60.0002 167.296 59.9972C167.755 59.9972 168.225 59.9914 168.683 59.9812C169.691 59.9686 170.697 59.8799 171.692 59.716C172.69 59.544 173.657 59.2251 174.562 58.7698C175.462 58.3139 176.284 57.717 176.995 57.0017C177.711 56.2925 178.311 55.4754 178.772 54.5803C179.226 53.6808 179.54 52.7176 179.703 51.7238C179.871 50.7312 179.964 49.7274 179.982 48.721C179.988 48.2551 179.988 47.8039 179.988 47.3381C180 46.7932 180 46.2512 180 45.6974V14.3044C180 13.7551 180 13.2102 179.988 12.6667C179.988 12.2067 179.988 11.7453 179.982 11.2854C179.964 10.2788 179.871 9.27505 179.703 8.28236C179.54 7.28912 179.226 6.32645 178.772 5.42738C177.843 3.62299 176.371 2.15423 174.562 1.22768C173.657 0.773546 172.69 0.456556 171.692 0.287175C170.697 0.121849 169.691 0.0332067 168.683 0.022035C168.225 0.014715 167.755 0.005925 167.296 0.003C166.756 0 166.207 0 165.666 0V0.000195Z" fill="#A6A6A6"/>
<path d="M12.7031 58.6875C12.2448 58.6875 11.7976 58.6817 11.3428 58.6715C10.4009 58.6592 9.46112 58.5774 8.53127 58.4268C7.66423 58.2779 6.8243 58.0009 6.03918 57.605C5.26127 57.2123 4.55174 56.6974 3.9378 56.0801C3.31497 55.47 2.79643 54.7624 2.40274 53.9853C2.00471 53.2032 1.72924 52.3649 1.58595 51.4995C1.4312 50.5697 1.34748 49.6295 1.3355 48.687C1.32596 48.3707 1.31348 47.3174 1.31348 47.3174V12.6665C1.31348 12.6665 1.32677 11.6294 1.33557 11.3247C1.34704 10.3837 1.43028 9.44498 1.58457 8.5166C1.72813 7.64888 2.0038 6.80812 2.40204 6.02345C2.79429 5.24692 3.30995 4.53879 3.92903 3.92652C4.54741 3.30843 5.25921 2.79091 6.03844 2.39282C6.82175 1.99814 7.6601 1.7231 8.52539 1.57691C9.45829 1.42475 10.4013 1.34249 11.3465 1.33082L12.7038 1.3125H167.289L168.663 1.33155C169.6 1.34265 170.534 1.42417 171.458 1.57544C172.332 1.72346 173.179 2.00042 173.972 2.39721C175.533 3.19948 176.803 4.46875 177.604 6.02711C177.996 6.80637 178.268 7.64026 178.409 8.50049C178.566 9.43649 178.653 10.3826 178.671 11.3313C178.675 11.7561 178.675 12.2124 178.675 12.6665C178.687 13.229 178.687 13.7644 178.687 14.3042V45.6972C178.687 46.2422 178.687 46.7739 178.675 47.31C178.675 47.7978 178.675 48.2447 178.669 48.7046C178.652 49.6363 178.566 50.5656 178.412 51.4848C178.272 52.3564 177.998 53.2013 177.6 53.9898C177.204 54.7584 176.688 55.4599 176.072 56.0684C175.458 56.689 174.747 57.2069 173.967 57.6021C173.177 58.0011 172.331 58.2791 171.458 58.4268C170.529 58.5782 169.589 58.66 168.647 58.6715C168.206 58.6817 167.745 58.6875 167.297 58.6875L165.666 58.6905L12.7031 58.6875Z" fill="black"/>
<path d="M37.2573 30.4515C37.2735 29.1995 37.607 27.9719 38.2267 26.883C38.8465 25.794 39.7324 24.8791 40.8021 24.2234C40.1226 23.2556 39.2261 22.4592 38.184 21.8974C37.1418 21.3356 35.9826 21.0238 34.7985 20.9869C32.2726 20.7225 29.8238 22.4941 28.5366 22.4941C27.2246 22.4941 25.2428 21.0131 23.1087 21.0569C21.7283 21.1014 20.383 21.5016 19.2039 22.2187C18.0248 22.9358 17.0521 23.9453 16.3805 25.1487C13.4713 30.1713 15.6413 37.5529 18.428 41.6128C19.8223 43.6008 21.4517 45.8215 23.5839 45.7428C25.6703 45.6565 26.4496 44.4161 28.9681 44.4161C31.4632 44.4161 32.1943 45.7428 34.3697 45.6927C36.6085 45.6565 38.0191 43.6958 39.3644 41.689C40.3662 40.2725 41.1371 38.7069 41.6485 37.0502C40.3478 36.5016 39.2378 35.5834 38.4569 34.4099C37.676 33.2365 37.2588 31.8598 37.2573 30.4515V30.4515Z" fill="white"/>
<path d="M33.1482 18.317C34.3689 16.8557 34.9703 14.9774 34.8246 13.0811C32.9597 13.2764 31.237 14.1652 29.9998 15.5705C29.3948 16.257 28.9316 17.0556 28.6364 17.9208C28.3412 18.7859 28.2199 19.7006 28.2794 20.6126C29.2122 20.6221 30.135 20.4205 30.9784 20.0229C31.8217 19.6253 32.5636 19.042 33.1482 18.317Z" fill="white"/>
<path d="M63.6308 40.7105H56.5108L54.8009 45.7452H51.7852L58.5291 27.1182H61.6624L68.4064 45.7452H65.3392L63.6308 40.7105ZM57.2482 38.3872H62.892L60.1098 30.2163H60.0319L57.2482 38.3872Z" fill="white"/>
<path d="M82.971 38.9561C82.971 43.1764 80.7059 45.8878 77.2876 45.8878C76.4217 45.9329 75.5606 45.734 74.8027 45.3138C74.0449 44.8936 73.4211 44.2691 73.0027 43.5118H72.938V50.2383H70.1426V32.1651H72.8484V34.4239H72.8999C73.3375 33.6702 73.9719 33.0489 74.7355 32.6261C75.499 32.2034 76.3633 31.9949 77.2362 32.023C80.6926 32.023 82.971 34.7476 82.971 38.9561ZM80.0977 38.9561C80.0977 36.2066 78.6728 34.399 76.4988 34.399C74.3629 34.399 72.9263 36.2447 72.9263 38.9561C72.9263 41.6925 74.3629 43.525 76.4988 43.525C78.6729 43.525 80.0977 41.7305 80.0977 38.9561Z" fill="white"/>
<path d="M97.9603 38.9561C97.9603 43.1763 95.6951 45.8878 92.2769 45.8878C91.411 45.9329 90.5498 45.734 89.792 45.3138C89.0342 44.8936 88.4104 44.2691 87.9919 43.5118H87.9273V50.2383H85.1318V32.1651H87.8376V34.4239H87.8891C88.3267 33.6702 88.9611 33.0489 89.7247 32.6261C90.4883 32.2034 91.3525 31.9949 92.2254 32.023C95.6819 32.023 97.9603 34.7476 97.9603 38.9561ZM95.087 38.9561C95.087 36.2066 93.6621 34.399 91.488 34.399C89.3522 34.399 87.9155 36.2447 87.9155 38.9561C87.9155 41.6924 89.3522 43.525 91.488 43.525C93.6621 43.525 95.087 41.7305 95.087 38.9561H95.087Z" fill="white"/>
<path d="M107.866 40.5553C108.074 42.4024 109.873 43.6153 112.332 43.6153C114.688 43.6153 116.383 42.4024 116.383 40.7368C116.383 39.291 115.361 38.4253 112.94 37.832L110.519 37.2505C107.089 36.4243 105.497 34.8247 105.497 32.229C105.497 29.0151 108.306 26.8076 112.294 26.8076C116.241 26.8076 118.947 29.0151 119.038 32.229H116.216C116.047 30.3701 114.506 29.2481 112.254 29.2481C110.002 29.2481 108.461 30.3833 108.461 32.0357C108.461 33.3526 109.446 34.1275 111.853 34.7207L113.911 35.2246C117.744 36.1284 119.336 37.6636 119.336 40.3881C119.336 43.873 116.552 46.0556 112.125 46.0556C107.982 46.0556 105.186 43.9243 105.005 40.5551L107.866 40.5553Z" fill="white"/>
<path d="M125.369 28.9512V32.165H127.959V34.3726H125.369V41.8594C125.369 43.0225 125.887 43.5645 127.026 43.5645C127.333 43.5591 127.64 43.5376 127.945 43.5V45.6943C127.434 45.7897 126.913 45.8329 126.393 45.8232C123.636 45.8232 122.56 44.7905 122.56 42.1567V34.3726H120.58V32.165H122.56V28.9512H125.369Z" fill="white"/>
<path d="M129.459 38.956C129.459 34.6831 131.983 31.998 135.918 31.998C139.867 31.998 142.378 34.683 142.378 38.956C142.378 43.2407 139.88 45.9141 135.918 45.9141C131.958 45.9141 129.459 43.2407 129.459 38.956ZM139.53 38.956C139.53 36.0249 138.183 34.2949 135.918 34.2949C133.653 34.2949 132.307 36.0381 132.307 38.956C132.307 41.8989 133.653 43.6157 135.918 43.6157C138.183 43.6157 139.53 41.8989 139.53 38.956H139.53Z" fill="white"/>
<path d="M144.684 32.165H147.35V34.4765H147.414C147.595 33.7546 148.019 33.1166 148.615 32.6697C149.212 32.2229 149.945 31.9945 150.69 32.0229C151.012 32.0217 151.334 32.0566 151.648 32.1269V34.7343C151.241 34.6104 150.817 34.5535 150.392 34.5658C149.986 34.5494 149.581 34.6208 149.205 34.7752C148.829 34.9295 148.491 35.1631 148.215 35.4599C147.938 35.7568 147.729 36.1098 147.602 36.4948C147.475 36.8798 147.433 37.2877 147.479 37.6903V45.7455H144.684L144.684 32.165Z" fill="white"/>
<path d="M164.536 41.7568C164.16 44.2222 161.752 45.9141 158.672 45.9141C154.71 45.9141 152.251 43.2671 152.251 39.0205C152.251 34.7607 154.723 31.998 158.554 31.998C162.322 31.998 164.692 34.5791 164.692 38.6968V39.6519H155.073V39.8203C155.028 40.3201 155.091 40.8236 155.257 41.2974C155.423 41.7711 155.688 42.2043 156.034 42.5681C156.381 42.9319 156.801 43.2181 157.267 43.4075C157.733 43.597 158.234 43.6854 158.736 43.667C159.397 43.7287 160.06 43.5761 160.627 43.232C161.193 42.8878 161.633 42.3704 161.881 41.7568L164.536 41.7568ZM155.086 37.7036H161.895C161.92 37.2542 161.851 36.8045 161.694 36.3827C161.537 35.9609 161.293 35.5761 160.98 35.2524C160.666 34.9288 160.289 34.6733 159.871 34.5019C159.454 34.3306 159.006 34.2472 158.554 34.2568C158.099 34.2541 157.648 34.3413 157.227 34.5135C156.805 34.6856 156.422 34.9392 156.1 35.2596C155.778 35.5801 155.522 35.961 155.348 36.3805C155.174 36.8 155.085 37.2497 155.086 37.7036V37.7036Z" fill="white"/>
<path d="M56.8992 13.0961C57.4853 13.0542 58.0734 13.1424 58.6211 13.3546C59.1688 13.5667 59.6624 13.8975 60.0664 14.3229C60.4704 14.7483 60.7747 15.2579 60.9573 15.8148C61.14 16.3717 61.1964 16.9621 61.1225 17.5434C61.1225 20.4027 59.5727 22.0464 56.8992 22.0464H53.6572V13.0961H56.8992ZM55.0513 20.7806H56.7435C57.1623 20.8056 57.5814 20.7371 57.9703 20.5802C58.3592 20.4232 58.7081 20.1818 58.9916 19.8735C59.2751 19.5651 59.4862 19.1976 59.6093 18.7977C59.7324 18.3978 59.7646 17.9755 59.7034 17.5616C59.7602 17.1493 59.7247 16.7297 59.5997 16.3327C59.4747 15.9357 59.2631 15.5712 58.9803 15.2653C58.6974 14.9594 58.3501 14.7197 57.9634 14.5633C57.5767 14.407 57.1601 14.3379 56.7435 14.3609H55.0513V20.7806Z" fill="white"/>
<path d="M62.6968 18.6657C62.6542 18.2218 62.7051 17.774 62.8462 17.3509C62.9874 16.9278 63.2157 16.5387 63.5164 16.2088C63.8172 15.8788 64.1838 15.6152 64.5927 15.4347C65.0016 15.2543 65.4438 15.1611 65.891 15.1611C66.3381 15.1611 66.7804 15.2543 67.1893 15.4347C67.5982 15.6152 67.9648 15.8788 68.2656 16.2088C68.5663 16.5387 68.7946 16.9278 68.9357 17.3509C69.0769 17.774 69.1278 18.2218 69.0852 18.6657C69.1286 19.11 69.0783 19.5585 68.9375 19.9823C68.7967 20.4061 68.5686 20.7958 68.2678 21.1264C67.9669 21.457 67.6001 21.7213 67.1907 21.9021C66.7814 22.0829 66.3387 22.1763 65.891 22.1763C65.4433 22.1763 65.0006 22.0829 64.5912 21.9021C64.1819 21.7213 63.815 21.457 63.5142 21.1264C63.2134 20.7958 62.9852 20.4061 62.8445 19.9823C62.7037 19.5585 62.6534 19.11 62.6968 18.6657V18.6657ZM67.7103 18.6657C67.7103 17.2016 67.0507 16.3454 65.8932 16.3454C64.7313 16.3454 64.0776 17.2016 64.0776 18.6657C64.0776 20.1415 64.7313 20.9911 65.8932 20.9911C67.0507 20.9911 67.7103 20.1357 67.7103 18.6657H67.7103Z" fill="white"/>
<path d="M77.5787 22.0474H76.192L74.7921 17.0727H74.6863L73.2923 22.0474H71.9188L70.0518 15.293H71.4076L72.621 20.447H72.7209L74.1134 15.293H75.3958L76.7884 20.447H76.8942L78.1016 15.293H79.4384L77.5787 22.0474Z" fill="white"/>
<path d="M81.0078 15.2923H82.2946V16.3653H82.3945C82.564 15.9799 82.8498 15.6569 83.2121 15.4411C83.5744 15.2254 83.9952 15.1278 84.4158 15.1619C84.7454 15.1372 85.0763 15.1868 85.384 15.3069C85.6918 15.4271 85.9685 15.6147 86.1937 15.856C86.4188 16.0972 86.5867 16.3859 86.6847 16.7007C86.7828 17.0154 86.8086 17.3481 86.7602 17.6741V22.0466H85.4235V18.0089C85.4235 16.9234 84.9505 16.3836 83.9619 16.3836C83.7381 16.3732 83.5147 16.4112 83.3071 16.4949C83.0994 16.5787 82.9124 16.7062 82.7587 16.8688C82.6051 17.0314 82.4886 17.2252 82.4171 17.4368C82.3456 17.6485 82.3209 17.8732 82.3446 18.0953V22.0467H81.0078L81.0078 15.2923Z" fill="white"/>
<path d="M88.8906 12.6553H90.2274V22.0464H88.8906V12.6553Z" fill="white"/>
<path d="M92.0854 18.6658C92.0428 18.2219 92.0938 17.774 92.235 17.3509C92.3762 16.9278 92.6045 16.5388 92.9053 16.2088C93.206 15.8788 93.5727 15.6152 93.9816 15.4347C94.3906 15.2543 94.8328 15.1611 95.28 15.1611C95.7272 15.1611 96.1694 15.2543 96.5784 15.4347C96.9873 15.6152 97.354 15.8788 97.6547 16.2088C97.9555 16.5388 98.1838 16.9278 98.325 17.3509C98.4662 17.774 98.5172 18.2219 98.4746 18.6658C98.5179 19.1102 98.4676 19.5587 98.3268 19.9824C98.1859 20.4062 97.9578 20.7959 97.6569 21.1266C97.356 21.4572 96.9891 21.7214 96.5798 21.9022C96.1704 22.0829 95.7277 22.1763 95.28 22.1763C94.8323 22.1763 94.3895 22.0829 93.9802 21.9022C93.5709 21.7214 93.204 21.4572 92.9031 21.1266C92.6022 20.7959 92.3741 20.4062 92.2332 19.9824C92.0924 19.5587 92.042 19.1102 92.0854 18.6658V18.6658ZM97.0989 18.6658C97.0989 17.2017 96.4394 16.3455 95.2818 16.3455C94.1199 16.3455 93.4663 17.2017 93.4663 18.6658C93.4663 20.1417 94.1199 20.9913 95.2818 20.9913C96.4394 20.9913 97.0989 20.1358 97.0989 18.6658H97.0989Z" fill="white"/>
<path d="M99.8809 20.1357C99.8809 18.9199 100.789 18.219 102.4 18.1194L104.235 18.0139V17.4309C104.235 16.7175 103.762 16.3147 102.848 16.3147C102.102 16.3147 101.585 16.5879 101.436 17.0654H100.142C100.279 15.9053 101.373 15.1611 102.91 15.1611C104.608 15.1611 105.566 16.0041 105.566 17.4309V22.0459H104.279V21.0967H104.173C103.958 21.4372 103.657 21.7147 103.3 21.9011C102.942 22.0874 102.542 22.1758 102.139 22.1572C101.854 22.1867 101.567 22.1564 101.295 22.0684C101.023 21.9803 100.773 21.8364 100.56 21.646C100.347 21.4555 100.177 21.2227 100.06 20.9626C99.943 20.7025 99.882 20.4208 99.8809 20.1357V20.1357ZM104.235 19.5586V18.9939L102.581 19.0994C101.648 19.1616 101.225 19.478 101.225 20.0735C101.225 20.6814 101.754 21.0351 102.481 21.0351C102.694 21.0566 102.909 21.0352 103.114 20.9721C103.318 20.9089 103.508 20.8054 103.672 20.6676C103.835 20.5299 103.97 20.3607 104.066 20.1702C104.163 19.9796 104.22 19.7716 104.235 19.5586V19.5586Z" fill="white"/>
<path d="M107.323 18.6663C107.323 16.532 108.423 15.18 110.135 15.18C110.558 15.1605 110.978 15.2616 111.346 15.4714C111.714 15.6813 112.014 15.9912 112.212 16.365H112.312V12.6553H113.649V22.0464H112.368V20.9792H112.262C112.049 21.3505 111.738 21.6565 111.363 21.8642C110.988 22.072 110.563 22.1735 110.135 22.1577C108.412 22.1578 107.323 20.8057 107.323 18.6663ZM108.704 18.6663C108.704 20.0989 109.381 20.961 110.514 20.961C111.641 20.961 112.337 20.0865 112.337 18.6721C112.337 17.2644 111.633 16.3775 110.514 16.3775C109.389 16.3775 108.704 17.2454 108.704 18.6663H108.704Z" fill="white"/>
<path d="M119.179 18.6657C119.137 18.2218 119.188 17.774 119.329 17.3509C119.47 16.9278 119.698 16.5387 119.999 16.2088C120.3 15.8788 120.666 15.6152 121.075 15.4347C121.484 15.2543 121.926 15.1611 122.373 15.1611C122.821 15.1611 123.263 15.2543 123.672 15.4347C124.081 15.6152 124.447 15.8788 124.748 16.2088C125.049 16.5387 125.277 16.9278 125.418 17.3509C125.559 17.774 125.61 18.2218 125.568 18.6657C125.611 19.11 125.561 19.5585 125.42 19.9823C125.279 20.4061 125.051 20.7958 124.75 21.1264C124.449 21.457 124.082 21.7213 123.673 21.9021C123.264 22.0829 122.821 22.1763 122.373 22.1763C121.926 22.1763 121.483 22.0829 121.074 21.9021C120.664 21.7213 120.297 21.457 119.997 21.1264C119.696 20.7958 119.468 20.4061 119.327 19.9823C119.186 19.5585 119.136 19.11 119.179 18.6657V18.6657ZM124.193 18.6657C124.193 17.2016 123.533 16.3454 122.376 16.3454C121.214 16.3454 120.56 17.2016 120.56 18.6657C120.56 20.1415 121.214 20.9911 122.376 20.9911C123.533 20.9911 124.193 20.1357 124.193 18.6657Z" fill="white"/>
<path d="M127.361 15.2923H128.648V16.3653H128.748C128.917 15.9799 129.203 15.6569 129.566 15.4411C129.928 15.2254 130.349 15.1278 130.769 15.1619C131.099 15.1372 131.43 15.1868 131.738 15.3069C132.045 15.4271 132.322 15.6147 132.547 15.856C132.772 16.0972 132.94 16.3859 133.038 16.7007C133.136 17.0154 133.162 17.3481 133.114 17.6741V22.0466H131.777V18.0089C131.777 16.9234 131.304 16.3836 130.315 16.3836C130.092 16.3732 129.868 16.4112 129.661 16.4949C129.453 16.5787 129.266 16.7062 129.112 16.8688C128.959 17.0314 128.842 17.2252 128.771 17.4368C128.699 17.6485 128.674 17.8732 128.698 18.0953V22.0467H127.361V15.2923Z" fill="white"/>
<path d="M140.666 13.6104V15.3228H142.134V16.4456H140.666V19.9187C140.666 20.6262 140.959 20.936 141.624 20.936C141.795 20.9355 141.965 20.9252 142.134 20.9053V22.0156C141.894 22.0584 141.651 22.0812 141.407 22.0837C139.92 22.0837 139.328 21.5622 139.328 20.26V16.4455H138.253V15.3227H139.328V13.6104H140.666Z" fill="white"/>
<path d="M143.961 12.6553H145.286V16.3774H145.392C145.569 15.9885 145.863 15.6636 146.233 15.4471C146.602 15.2305 147.03 15.1329 147.457 15.1675C147.785 15.1497 148.113 15.2043 148.417 15.3273C148.721 15.4504 148.994 15.6389 149.217 15.8794C149.44 16.1199 149.607 16.4065 149.706 16.7187C149.805 17.0309 149.833 17.361 149.79 17.6856V22.0464H148.452V18.0144C148.452 16.9355 147.948 16.3891 147.003 16.3891C146.773 16.3704 146.542 16.4019 146.326 16.4814C146.11 16.561 145.914 16.6868 145.751 16.8499C145.589 17.013 145.464 17.2095 145.386 17.4257C145.307 17.6419 145.277 17.8726 145.298 18.1015V22.0464H143.961L143.961 12.6553Z" fill="white"/>
<path d="M157.583 20.2223C157.401 20.8396 157.008 21.3736 156.471 21.7308C155.935 22.088 155.289 22.2457 154.648 22.1764C154.202 22.1881 153.758 22.1029 153.348 21.9266C152.938 21.7503 152.572 21.4872 152.274 21.1555C151.977 20.8238 151.755 20.4314 151.624 20.0057C151.494 19.58 151.458 19.131 151.519 18.6901C151.46 18.2477 151.496 17.7978 151.626 17.3708C151.756 16.9438 151.977 16.5497 152.273 16.2151C152.569 15.8804 152.934 15.6132 153.343 15.4314C153.751 15.2496 154.195 15.1574 154.642 15.1612C156.527 15.1612 157.664 16.4452 157.664 18.5662V19.0314H152.881V19.1061C152.86 19.3539 152.891 19.6034 152.973 19.8386C153.054 20.0737 153.184 20.2893 153.354 20.4714C153.523 20.6536 153.73 20.7984 153.959 20.8965C154.188 20.9946 154.435 21.0438 154.685 21.0411C155.004 21.0794 155.328 21.0219 155.615 20.8761C155.902 20.7303 156.139 20.5027 156.296 20.2222L157.583 20.2223ZM152.881 18.0455H156.302C156.319 17.8188 156.288 17.5911 156.211 17.3771C156.135 17.163 156.014 16.9673 155.857 16.8025C155.7 16.6377 155.51 16.5075 155.3 16.4202C155.089 16.3329 154.863 16.2906 154.635 16.2958C154.404 16.2929 154.174 16.3362 153.96 16.4231C153.746 16.51 153.551 16.6388 153.388 16.8019C153.224 16.9649 153.095 17.159 153.008 17.3726C152.921 17.5862 152.878 17.815 152.881 18.0455H152.881Z" fill="white"/>
</g>
<defs>
<clipPath id="clip0">
<rect width="180" height="60" fill="white"/>
</clipPath>
</defs>
</svg>
