<svg width="150" height="152" viewBox="0 0 150 152" fill="none" xmlns="http://www.w3.org/2000/svg">
<path fill-rule="evenodd" clip-rule="evenodd" d="M117.867 127.303H63.7173C60.6123 127.303 58.0923 124.783 58.0923 121.678C58.0923 118.573 60.6123 116.053 63.7173 116.053H117.867C120.972 116.053 123.492 118.573 123.492 121.678C123.492 124.783 120.972 127.303 117.867 127.303Z" fill="#E3E5E8"/>
<path fill-rule="evenodd" clip-rule="evenodd" d="M117.867 95.9041H63.7173C60.6123 95.9041 58.0923 93.3841 58.0923 90.2791C58.0923 87.1741 60.6123 84.6541 63.7173 84.6541H117.867C120.972 84.6541 123.492 87.1741 123.492 90.2791C123.492 93.3841 120.972 95.9041 117.867 95.9041Z" fill="#E3E5E8"/>
<path fill-rule="evenodd" clip-rule="evenodd" d="M84.3793 64.5779H63.7168C60.6118 64.5779 58.0918 62.0579 58.0918 58.9529C58.0918 55.8479 60.6118 53.3279 63.7168 53.3279H84.3793C87.4843 53.3279 90.0043 55.8479 90.0043 58.9529C90.0043 62.0579 87.4843 64.5779 84.3793 64.5779Z" fill="#E3E5E8"/>
<mask id="mask0" mask-type="alpha" maskUnits="userSpaceOnUse" x="22" y="15" width="137" height="150">
<path fill-rule="evenodd" clip-rule="evenodd" d="M22.5 15.0015H158.735V164.325H22.5V15.0015Z" fill="white"/>
</mask>
<g mask="url(#mask0)">
<path fill-rule="evenodd" clip-rule="evenodd" d="M119.314 26.25L61.6466 26.28C44.1866 26.385 33.7466 37.185 33.7466 55.1775V124.148C33.7466 142.26 44.2841 153.075 61.9166 153.075L119.584 153.052C137.044 152.947 147.484 142.132 147.484 124.148V55.1775C147.484 37.065 136.954 26.25 119.314 26.25ZM61.9241 164.325C38.3441 164.325 22.4966 148.178 22.4966 124.148V55.1775C22.4966 30.93 37.8491 15.1725 61.6091 15.03L119.307 15H119.314C142.894 15 158.734 31.1475 158.734 55.1775V124.148C158.734 148.387 143.382 164.152 119.622 164.302L61.9241 164.325Z" fill="#E3E5E8"/>
</g>
</svg>
