<svg width="202" height="60" viewBox="0 0 202 60" fill="none" xmlns="http://www.w3.org/2000/svg">
<path fill-rule="evenodd" clip-rule="evenodd" d="M194.516 60H7.48423C3.35936 60 0 56.6185 0 52.5V7.5C0 3.36658 3.35936 0 7.48423 0H194.516C198.637 0 202 3.36658 202 7.5V52.5C202 56.6185 198.637 60 194.516 60Z" fill="black"/>
<path fill-rule="evenodd" clip-rule="evenodd" d="M194.516 1.20075C197.975 1.20075 200.807 4.03242 200.807 7.5V52.5C200.807 55.9676 197.994 58.7993 194.516 58.7993H7.48423C4.02454 58.7993 1.19287 55.9676 1.19287 52.5V7.5C1.19287 4.03242 4.00596 1.20075 7.48423 1.20075H194.516ZM194.516 0H7.48423C3.35936 0 0 3.38155 0 7.5V52.5C0 56.6334 3.35936 60 7.48423 60H194.516C198.637 60 202 56.6334 202 52.5V7.5C202 3.38155 198.637 0 194.516 0Z" fill="#A6A6A6"/>
<path d="M106.414 19.8479C105.065 19.8479 103.928 19.3729 103.029 18.4377C102.137 17.5287 101.639 16.2756 101.661 14.9963C101.661 13.631 102.122 12.4751 103.029 11.5587C103.924 10.6235 105.062 10.1484 106.41 10.1484C107.745 10.1484 108.882 10.6235 109.796 11.5587C110.703 12.505 111.163 13.6609 111.163 14.9963C111.148 16.3654 110.688 17.5213 109.796 18.434C108.9 19.3766 107.763 19.8479 106.414 19.8479ZM66.2768 19.8479C64.9576 19.8479 63.813 19.3804 62.8765 18.4564C61.9475 17.5362 61.4756 16.3729 61.4756 15.0001C61.4756 13.6272 61.9475 12.4639 62.8765 11.5437C63.7944 10.6198 64.939 10.1522 66.2768 10.1522C66.9308 10.1522 67.5662 10.2831 68.1757 10.5487C68.774 10.8068 69.2608 11.1584 69.6212 11.5886L69.7104 11.6971L68.7034 12.6921L68.5993 12.5686C68.0308 11.8878 67.269 11.5549 66.2619 11.5549C65.3626 11.5549 64.5785 11.8766 63.9319 12.5125C63.2816 13.1522 62.9509 13.9901 62.9509 15.0038C62.9509 16.0175 63.2816 16.8554 63.9319 17.4951C64.5785 18.131 65.3626 18.4527 66.2619 18.4527C67.2206 18.4527 68.027 18.131 68.6551 17.4951C69.0267 17.121 69.2571 16.5973 69.3388 15.9352H66.1095V14.5362H70.7249L70.7435 14.6634C70.7769 14.8991 70.8104 15.1422 70.8104 15.3666C70.8104 16.6572 70.4239 17.7008 69.6584 18.4714C68.7888 19.3841 67.6517 19.8479 66.2768 19.8479ZM119.643 19.6497H118.22L113.861 12.6285L113.898 13.8928V19.6459H112.475V10.3504H114.099L114.144 10.4215L118.242 17.035L118.205 15.7744V10.3504H119.643V19.6497ZM95.7193 19.6497H94.2774V11.7494H91.7765V10.3504H98.2165V11.7494H95.7156V19.6497H95.7193ZM90.6022 19.6497H89.1641V10.3504H90.6022V19.6497ZM82.5198 19.6497H81.0816V11.7494H78.5807V10.3504H85.0207V11.7494H82.5198V19.6497ZM77.6703 19.6347H72.1556V10.3504H77.6703V11.7494H73.5974V14.3006H77.2726V15.6846H73.5974V18.2357H77.6703V19.6347ZM104.084 17.4764C104.727 18.1235 105.507 18.4489 106.414 18.4489C107.347 18.4489 108.109 18.131 108.744 17.4764C109.376 16.8405 109.695 16.0063 109.695 15.0001C109.695 13.9938 109.376 13.1559 108.748 12.5237C108.105 11.8766 107.321 11.5512 106.418 11.5512C105.485 11.5512 104.723 11.8691 104.092 12.5237C103.46 13.1597 103.14 13.9938 103.14 15.0001C103.14 16.0063 103.456 16.8442 104.084 17.4764Z" fill="white"/>
<path fill-rule="evenodd" clip-rule="evenodd" d="M101.527 32.6336C98.0153 32.6336 95.1688 35.3157 95.1688 39.0152C95.1688 42.681 98.0339 45.3967 101.527 45.3967C105.039 45.3967 107.885 42.696 107.885 39.0152C107.885 35.3157 105.039 32.6336 101.527 32.6336ZM101.527 42.868C99.6058 42.868 97.9521 41.267 97.9521 39.0002C97.9521 36.6997 99.6095 35.1324 101.527 35.1324C103.448 35.1324 105.102 36.6997 105.102 39.0002C105.106 41.282 103.448 42.868 101.527 42.868ZM87.6548 32.6336C84.1431 32.6336 81.2965 35.3157 81.2965 39.0152C81.2965 42.681 84.1617 45.3967 87.6548 45.3967C91.1665 45.3967 94.0131 42.696 94.0131 39.0152C94.0131 35.3157 91.1628 32.6336 87.6548 32.6336ZM87.6548 42.868C85.7336 42.868 84.0799 41.267 84.0799 39.0002C84.0799 36.6997 85.7373 35.1324 87.6548 35.1324C89.576 35.1324 91.2297 36.6997 91.2297 39.0002C91.2297 41.282 89.576 42.868 87.6548 42.868ZM71.1478 34.5825V37.2832H77.5879C77.3909 38.7982 76.8929 39.9167 76.1311 40.6835C75.1872 41.6336 73.7305 42.666 71.1627 42.666C67.205 42.666 64.1095 39.4491 64.1095 35.4653C64.1095 31.4815 67.205 28.2645 71.1627 28.2645C73.2995 28.2645 74.8565 29.1137 76.0122 30.1985L77.9149 28.2832C76.3095 26.7346 74.1728 25.5488 71.1776 25.5488C65.7483 25.5488 61.1924 30.0002 61.1924 35.4503C61.1924 40.9154 65.7446 45.3518 71.1776 45.3518C74.1096 45.3518 76.3095 44.3867 78.0487 42.5688C79.8212 40.7845 80.3824 38.267 80.3824 36.2359C80.3824 35.6037 80.3341 35.0351 80.2337 34.5526H71.1441C71.1478 34.5488 71.1478 34.5825 71.1478 34.5825ZM138.666 36.6847C138.134 35.2521 136.529 32.6187 133.237 32.6187C129.974 32.6187 127.261 35.2034 127.261 39.0002C127.261 42.5837 129.944 45.3817 133.552 45.3817C136.451 45.3817 138.138 43.5975 138.833 42.5501L136.681 41.0987C135.968 42.1648 134.976 42.8643 133.567 42.8643C132.144 42.8643 131.148 42.2134 130.487 40.9304L138.963 37.3955C138.963 37.3992 138.666 36.6847 138.666 36.6847ZM130.022 38.8169C129.955 36.3518 131.925 35.0987 133.333 35.0987C134.444 35.0987 135.37 35.6486 135.686 36.4491L130.022 38.8169ZM123.136 45.0002H125.92V26.2521H123.136V45.0002ZM118.565 34.0513H118.465C117.837 33.2995 116.644 32.6187 115.121 32.6187C111.958 32.6187 109.045 35.4204 109.045 39.0189C109.045 42.6024 111.943 45.3705 115.121 45.3705C116.626 45.3705 117.837 44.686 118.465 43.9192H118.565V44.8356C118.565 47.2708 117.272 48.5837 115.187 48.5837C113.482 48.5837 112.423 47.3493 111.992 46.3169L109.572 47.3344C110.267 49.0177 112.122 51.1012 115.184 51.1012C118.446 51.1012 121.211 49.1673 121.211 44.4503V33.0002H118.58V34.0513C118.584 34.0513 118.565 34.0513 118.565 34.0513ZM115.37 42.868C113.448 42.868 111.843 41.2521 111.843 39.0189C111.843 36.767 113.448 35.1361 115.37 35.1361C117.272 35.1361 118.747 36.7857 118.747 39.0189C118.766 41.2521 117.276 42.868 115.37 42.868ZM151.698 26.2521H145.043V45.0002H147.826V37.9004H151.702C154.783 37.9004 157.811 35.6523 157.811 32.0837C157.811 28.5152 154.794 26.2521 151.698 26.2521ZM151.78 35.282H147.822V28.8481H151.78C153.865 28.8481 155.043 30.58 155.043 32.065C155.043 33.5351 153.85 35.282 151.78 35.282ZM168.967 32.5999C166.945 32.5999 164.861 33.5014 163.999 35.4653L166.466 36.4977C166.997 35.4653 167.971 35.1137 169 35.1137C170.442 35.1137 171.899 35.9815 171.932 37.5301V37.7284C171.434 37.4441 170.342 37.0102 169.034 37.0102C166.369 37.0102 163.668 38.4765 163.668 41.2259C163.668 43.7433 165.853 45.3593 168.287 45.3593C170.156 45.3593 171.185 44.5102 171.828 43.5264H171.929V44.9778H174.612V37.7957C174.612 34.4516 172.144 32.5999 168.967 32.5999ZM168.618 42.868C167.707 42.868 166.433 42.4191 166.433 41.267C166.433 39.8157 168.023 39.2658 169.379 39.2658C170.606 39.2658 171.186 39.5314 171.914 39.898C171.713 41.5812 170.301 42.8531 168.618 42.868ZM184.4 33.0002L181.204 41.1324H181.104L177.793 33.0002H174.798L179.766 44.368L176.934 50.686H179.833L187.477 33.0002H184.4ZM159.346 45.0002H162.129V26.2521H159.346V45.0002Z" fill="white"/>
<path fill-rule="evenodd" clip-rule="evenodd" d="M15.5492 11.3012C15.1181 11.7688 14.8691 12.4832 14.8691 13.4184V46.5867C14.8691 47.5219 15.1181 48.2364 15.5641 48.6852L15.6793 48.7862L34.1409 30.2027V29.7875L15.6644 11.2002L15.5492 11.3012Z" fill="url(#paint0_linear)"/>
<path fill-rule="evenodd" clip-rule="evenodd" d="M40.2826 36.4154L34.125 30.2171V29.7832L40.2826 23.585L40.4164 23.6673L47.7 27.8343C49.7847 29.0164 49.7847 30.969 47.7 32.166L40.4164 36.3331L40.2826 36.4154Z" fill="url(#paint1_linear)"/>
<path fill-rule="evenodd" clip-rule="evenodd" d="M40.417 36.3329L34.1256 30L15.5488 48.6995C16.2289 49.4327 17.3697 49.515 18.6443 48.8005L40.417 36.3329Z" fill="url(#paint2_linear)"/>
<path fill-rule="evenodd" clip-rule="evenodd" d="M40.417 23.6667L18.6443 11.2178C17.3697 10.4846 16.2252 10.5856 15.5488 11.3188L34.1256 29.9996L40.417 23.6667Z" fill="url(#paint3_linear)"/>
<path opacity="0.2" fill-rule="evenodd" clip-rule="evenodd" d="M40.2831 36.1982L18.659 48.5648C17.4513 49.2643 16.3736 49.2156 15.6787 48.5797L15.5635 48.6957L15.6787 48.7967C16.3736 49.4289 17.4513 49.4812 18.659 48.7817L40.4318 36.3329L40.2831 36.1982Z" fill="black"/>
<path opacity="0.12" fill-rule="evenodd" clip-rule="evenodd" d="M47.6996 31.9489L40.2637 36.1983L40.3975 36.3329L47.681 32.1658C48.7252 31.5673 49.2381 30.7818 49.2381 30C49.1749 30.7182 48.6435 31.399 47.6996 31.9489Z" fill="black"/>
<path opacity="0.25" fill-rule="evenodd" clip-rule="evenodd" d="M18.6447 11.4354L47.7009 28.0514C48.6448 28.5863 49.1762 29.2858 49.258 30.0003C49.258 29.2185 48.7451 28.4329 47.7009 27.8344L18.6447 11.2185C16.56 10.0177 14.8691 11.0202 14.8691 13.418V13.6349C14.8691 11.2334 16.56 10.2496 18.6447 11.4354Z" fill="white"/>
<defs>
<linearGradient id="paint0_linear" x1="32.4849" y1="13.0605" x2="2.88691" y2="20.8952" gradientUnits="userSpaceOnUse">
<stop stop-color="#00A0FF"/>
<stop offset="0.00657" stop-color="#00A1FF"/>
<stop offset="0.2601" stop-color="#00BEFF"/>
<stop offset="0.5122" stop-color="#00D2FF"/>
<stop offset="0.7604" stop-color="#00DFFF"/>
<stop offset="1" stop-color="#00E3FF"/>
</linearGradient>
<linearGradient id="paint1_linear" x1="50.4187" y1="30.0002" x2="14.3613" y2="30.0002" gradientUnits="userSpaceOnUse">
<stop stop-color="#FFE000"/>
<stop offset="0.4087" stop-color="#FFBD00"/>
<stop offset="0.7754" stop-color="#FFA500"/>
<stop offset="1" stop-color="#FF9C00"/>
</linearGradient>
<linearGradient id="paint2_linear" x1="36.996" y1="33.446" x2="13.0238" y2="73.5286" gradientUnits="userSpaceOnUse">
<stop stop-color="#FF3A44"/>
<stop offset="1" stop-color="#C31162"/>
</linearGradient>
<linearGradient id="paint3_linear" x1="10.871" y1="0.26778" x2="21.566" y2="18.1694" gradientUnits="userSpaceOnUse">
<stop stop-color="#32A071"/>
<stop offset="0.0685" stop-color="#2DA771"/>
<stop offset="0.4762" stop-color="#15CF74"/>
<stop offset="0.8009" stop-color="#06E775"/>
<stop offset="1" stop-color="#00F076"/>
</linearGradient>
</defs>
</svg>
