<svg width="150" height="152" viewBox="0 0 150 152" fill="none" xmlns="http://www.w3.org/2000/svg">
<path fill-rule="evenodd" clip-rule="evenodd" d="M71.6066 15.7316C82.2993 7.25614 97.4842 7.25614 108.177 15.7316L108.19 15.742L157.499 55.0657C163.312 59.529 166.774 66.3863 166.874 73.7066L166.876 73.7838L166.875 139.214C166.875 156.615 152.642 170.625 135.203 170.625H120.773L120.642 170.623C112.623 170.437 106.127 163.931 106.129 155.857C106.129 155.856 106.129 155.857 106.129 155.857V132.785C106.129 130.067 103.887 127.767 101.003 127.767H79.3798C76.517 127.794 74.3041 130.084 74.3041 132.785V155.786C74.3041 156.339 74.2241 156.874 74.075 157.38C73.2729 164.867 66.8854 170.625 59.2272 170.625H44.7968C27.3584 170.625 13.125 156.615 13.125 139.214V73.7996C13.1975 66.4655 16.6661 59.5901 22.5016 55.1364L71.6066 15.7316ZM63.0541 155.786V132.785C63.0541 132.785 63.0541 132.785 63.0541 132.785C63.054 123.79 70.372 116.577 79.3202 116.517L79.3576 116.517L101.003 116.517C109.994 116.517 117.379 123.747 117.379 132.785V155.857C117.378 157.701 118.866 159.303 120.852 159.375H135.203C146.535 159.375 155.625 150.295 155.625 139.214V73.8258C155.561 69.9751 153.731 66.3434 150.621 63.9682L150.528 63.8955L101.189 24.5479C101.187 24.5463 101.185 24.5448 101.183 24.5432C94.5882 19.3206 85.2034 19.3189 78.607 24.5382L29.4857 63.9563L29.3624 64.0525C26.2483 66.4121 24.4208 70.0413 24.375 73.8856V139.214C24.375 150.295 33.4647 159.375 44.7968 159.375H59.2272C61.3145 159.375 62.9098 157.715 62.9098 155.786H63.0541Z" fill="#B6C8E5"/>
</svg>
