<svg width="490" height="154" viewBox="0 0 490 154" fill="none" xmlns="http://www.w3.org/2000/svg">
<path fill-rule="evenodd" clip-rule="evenodd" d="M27.4123 0.162506H76.7307C84.1229 0.162506 90.8432 3.18561 95.7134 8.0563C100.584 12.9265 103.607 19.6463 103.607 27.0385V126.787C103.607 134.179 100.584 140.899 95.7134 145.769C90.8432 150.64 84.1229 153.663 76.7307 153.663H27.4123C20.0202 153.663 13.3004 150.64 8.43021 145.769C3.55951 140.899 0.536011 134.179 0.536011 126.787V27.0385C0.536011 19.6463 3.55951 12.9265 8.43021 8.05579C13.3004 3.18559 20.0197 0.162506 27.4123 0.162506V0.162506ZM76.7307 3.41769H27.4123C20.9179 3.41769 15.0126 6.07561 10.7306 10.3572C6.44901 14.6392 3.79111 20.544 3.79111 27.0385V126.787C3.79111 133.282 6.44901 139.186 10.7306 143.468C15.0126 147.75 20.9179 150.408 27.4123 150.408H76.7307C83.2256 150.408 89.13 147.75 93.412 143.468C97.6936 139.186 100.351 133.282 100.351 126.787V27.0385C100.351 20.544 97.6936 14.6392 93.412 10.3576C89.13 6.0756 83.2256 3.41769 76.7307 3.41769V3.41769Z" fill="#45546F"/>
<path fill-rule="evenodd" clip-rule="evenodd" d="M59.1324 69.2781L37.9484 48.0942L35.5948 50.4478L54.4251 69.2781L52.0711 71.6322L33.2412 52.8019L30.8871 50.4483V50.4478L33.2412 48.0942L35.5948 45.7406L37.9484 43.387V43.3865L61.4864 66.9245L63.8401 69.2781L54.4251 78.693L52.0711 81.0466L49.7174 78.693L23.8258 52.8019L21.4722 50.4478L52.0711 19.849L54.4251 22.2031L80.3163 48.0942L82.6704 50.4478L80.3163 52.8019L70.9014 62.2168L68.5478 59.8632L47.3638 38.6793L45.0097 36.3252L47.3638 33.9716L49.7174 31.618L52.0711 29.2639L54.4251 31.618L73.255 50.4478L70.9014 52.8019L52.0711 33.9716L49.7174 36.3252L70.9014 57.5096L77.9622 50.4478L52.0711 24.5567L26.1799 50.4478L52.0711 76.3394L59.1324 69.2781ZM60.6153 144.849V144.851H58.7502H50.384H47.0557V141.461V85.4472L14.4109 52.8024L12.0573 50.4483L14.4109 48.0947L49.7174 12.7882L52.0711 10.4346L54.4251 12.7882L89.7317 48.0947L92.0848 50.4483L89.7317 52.8024L73.255 69.2786L70.9014 71.6322L57.0414 85.4922V114.342H63.9295L63.9455 114.358L63.9465 127.902H53.7736V121.122L57.1647 121.12L57.1638 124.512H60.5563V117.732H53.7127V114.342V88.8204V84.6302V84.1127L68.5478 69.2781L40.303 41.0324L42.6561 38.6788L70.9014 66.924L87.3776 50.4478L52.0711 15.1413L16.7645 50.4478L50.384 84.0677V84.3768V88.7749V141.461H56.8803V141.46H63.9465V134.682H60.5563V134.681L59.9914 134.682H58.7502V134.682L57.1647 134.683V138.073H53.7756L53.7736 131.292H63.9465V131.291H67.3356V144.85H64.02H63.9465L60.6153 144.849Z" fill="#CB834B"/>
<path fill-rule="evenodd" clip-rule="evenodd" d="M166.419 57.8956C171.061 56.0097 174.18 52.1658 174.18 46.3631C174.18 38.095 167.652 33.3075 156.337 33.3075H134.433V84.0788H157.788C170.481 84.0788 176.864 79.1472 176.864 70.5159C176.864 63.6258 172.947 59.3461 166.419 57.8956V57.8956ZM155.975 37.7317C164.098 37.7317 168.813 40.851 168.813 46.943C168.813 53.036 164.098 56.1548 155.975 56.1548H139.8V37.7317H155.975ZM157.715 79.6546H139.8V60.5791H157.715C166.637 60.5791 171.496 63.4802 171.496 70.0805C171.496 76.7534 166.637 79.6546 157.715 79.6546ZM227.054 84.0788H232.712L209.502 33.3075H204.208L180.997 84.0788H186.583L192.675 70.5159H220.962L227.054 84.0788ZM194.634 66.1642L206.819 38.8926L219.003 66.1642H194.634ZM255.123 84.5142C268.107 84.5142 274.054 78.1315 274.054 70.661C274.054 52.1658 242.793 60.5791 242.793 46.6533C242.793 41.5761 246.928 37.4415 256.211 37.4415C260.709 37.4415 265.785 38.82 270.137 41.6491L271.951 37.3695C267.889 34.5409 261.941 32.8727 256.211 32.8727C243.301 32.8727 237.499 39.3279 237.499 46.7984C237.499 65.5837 268.759 57.0249 268.759 70.9507C268.759 75.9554 264.625 79.9448 255.123 79.9448C248.451 79.9448 241.995 77.3339 238.369 73.7798L236.265 77.9143C240.038 81.8307 247.508 84.5142 255.123 84.5142V84.5142ZM304.735 33.3075H285.731V84.0788H291.099V68.0496H304.735C317.645 68.0496 325.478 61.5218 325.478 50.7148C325.478 39.8353 317.645 33.3075 304.735 33.3075V33.3075ZM304.59 63.3356H291.099V37.9494H304.59C314.744 37.9494 320.11 42.5918 320.11 50.7148C320.11 58.6932 314.744 63.3356 304.59 63.3356ZM372.478 84.0788H378.136L354.925 33.3075H349.631L326.421 84.0788H332.006L338.099 70.5159H366.386L372.478 84.0788ZM340.057 66.1642L352.242 38.8926L364.427 66.1642H340.057ZM423.684 33.3075V74.5048L390.974 33.3075H386.549V84.0788H391.916V42.882L424.555 84.0788H428.979V33.3075H423.684ZM483.45 84.0788H489.107L465.897 33.3075H460.602L437.393 84.0788H442.978L449.07 70.5159H477.357L483.45 84.0788ZM451.028 66.1642L463.214 38.8926L475.398 66.1642H451.028Z" fill="#45546F" stroke="#45546F" stroke-width="0.216"/>
<path fill-rule="evenodd" clip-rule="evenodd" d="M160.752 100.124C155.869 100.124 152.236 103.642 152.236 108.363C152.236 113.084 155.869 116.602 160.752 116.602C165.636 116.602 169.269 113.107 169.269 108.363C169.269 103.619 165.636 100.124 160.752 100.124ZM160.752 101.652C164.409 101.652 167.186 104.151 167.533 107.669H153.972C154.319 104.151 157.095 101.652 160.752 101.652ZM160.752 115.075C157.095 115.075 154.296 112.552 153.972 109.034H167.533C167.209 112.552 164.409 115.075 160.752 115.075ZM182.874 110.122C184.286 109.659 185.235 108.687 185.235 107.414C185.235 105.424 183.105 104.151 180.329 104.151C178.847 104.151 177.32 104.498 175.816 105.284L176.278 106.558C177.574 105.887 178.917 105.563 180.166 105.563C182.111 105.563 183.545 106.303 183.545 107.645C183.545 108.849 182.295 109.567 180.513 109.567H178.523V110.77H180.606C182.643 110.77 183.892 111.533 183.892 112.829C183.892 114.311 182.249 115.19 180.051 115.19C178.569 115.19 176.996 114.728 175.862 113.871L175.307 115.098C176.603 116.093 178.384 116.602 180.12 116.602C183.152 116.602 185.582 115.167 185.582 112.968C185.582 111.533 184.587 110.515 182.874 110.122V110.122ZM210.203 104.29H208.583L203.977 114.658L199.441 104.29H197.706L203.121 116.533V120.953H204.764V116.533L210.203 104.29ZM222.721 102.554C224.78 102.554 226.146 101.49 226.192 99.5451H225.011C224.965 100.772 224.04 101.536 222.721 101.536C221.401 101.536 220.475 100.772 220.453 99.5451H219.272C219.319 101.49 220.661 102.554 222.721 102.554V102.554ZM217.189 116.463H218.67L226.77 106.789V116.463H228.414V104.29H226.956L218.833 113.964V104.29H217.189V116.463ZM238.385 101.628C239.079 101.628 239.589 101.096 239.589 100.425C239.589 99.8 239.057 99.2907 238.385 99.2907C237.714 99.2907 237.182 99.8232 237.182 100.448C237.182 101.096 237.714 101.628 238.385 101.628ZM237.552 116.463H239.195V104.29H237.552V116.463ZM259.258 115.028V104.29H257.615V109.682H249.954V104.29H248.311V116.463H249.954V111.094H257.615V116.463H259.674V119.125H261.224V115.028H259.258ZM272.539 110.77H284.111V109.59H272.539V110.77ZM327.012 110.122C328.423 109.659 329.372 108.687 329.372 107.414C329.372 105.424 327.243 104.151 324.466 104.151C322.985 104.151 321.458 104.498 319.953 105.284L320.416 106.558C321.712 105.887 323.054 105.563 324.305 105.563C326.248 105.563 327.683 106.303 327.683 107.645C327.683 108.849 326.434 109.567 324.651 109.567H322.661V110.77H324.744C326.78 110.77 328.03 111.533 328.03 112.829C328.03 114.311 326.388 115.19 324.188 115.19C322.708 115.19 321.134 114.728 320 113.871L319.444 115.098C320.74 116.093 322.522 116.602 324.258 116.602C327.29 116.602 329.719 115.167 329.719 112.968C329.719 111.533 328.724 110.515 327.012 110.122V110.122ZM353.647 115.051L349.666 110.191L354.457 104.29H352.674L348.393 109.636H345.592V104.29H343.95V116.463H345.592V111.048H348.37L352.86 116.463H354.41V119.147H355.914V115.051H353.647ZM366.418 116.579C369.983 116.579 372.598 113.987 372.598 110.376C372.598 106.766 369.983 104.197 366.418 104.197C362.855 104.197 360.217 106.766 360.217 110.376C360.217 113.987 362.855 116.579 366.418 116.579ZM366.418 115.121C363.826 115.121 361.882 113.223 361.882 110.376C361.882 107.53 363.826 105.632 366.418 105.632C369.01 105.632 370.932 107.53 370.932 110.376C370.932 113.223 369.01 115.121 366.418 115.121ZM381.54 104.29L381.331 108.64C381.17 111.857 380.985 115.121 378.971 115.121C378.809 115.121 378.6 115.075 378.392 115.028L378.277 116.44C378.716 116.556 379.087 116.625 379.457 116.625C382.072 116.625 382.604 113.014 382.813 108.756L382.974 105.748H388.796V116.463H390.438V104.29H381.54ZM404.668 108.594L401.197 108.548V104.29H399.554V116.463L404.368 116.486C407.584 116.533 409.366 115.075 409.366 112.483C409.366 109.983 407.724 108.618 404.668 108.594V108.594ZM411.403 116.463H413.046V104.29H411.403V116.463ZM404.275 115.236L401.197 115.19V109.775L404.275 109.821C406.542 109.844 407.7 110.677 407.7 112.483C407.7 114.311 406.52 115.259 404.275 115.236ZM433.108 115.028V104.29H431.465V109.682H423.804V104.29H422.162V116.463H423.804V111.094H431.465V116.463H433.524V119.125H435.075V115.028H433.108ZM452.638 115.028V104.29H443.651L443.489 108.363C443.327 111.649 443.03 114.912 441.228 115.028H440.535V119.402H442.085V116.463H452.985V119.402H454.535V115.028H452.638ZM444.997 108.456L445.136 105.748H450.995V115.028H443.396C444.627 114.103 444.882 111.232 444.997 108.456ZM466.359 104.197C464.438 104.197 462.633 104.799 461.406 105.84L462.147 107.067C463.142 106.187 464.624 105.632 466.197 105.632C468.465 105.632 469.645 106.766 469.645 108.849V109.59H465.78C462.286 109.59 461.082 111.163 461.082 113.038C461.082 115.144 462.772 116.579 465.526 116.579C467.539 116.579 468.973 115.815 469.714 114.565V116.463H471.288V108.918C471.288 105.771 469.506 104.197 466.359 104.197V104.197ZM465.78 115.282C463.837 115.282 462.702 114.403 462.702 112.992C462.702 111.742 463.466 110.816 465.826 110.816H469.645V112.806C468.997 114.403 467.632 115.282 465.78 115.282V115.282ZM304.45 100.124C299.567 100.124 295.934 103.642 295.934 108.363C295.934 113.084 299.567 116.602 304.45 116.602C309.334 116.602 312.967 113.107 312.967 108.363C312.967 103.619 309.334 100.124 304.45 100.124ZM304.45 101.652C308.107 101.652 310.885 104.151 311.231 107.669H297.669C298.017 104.151 300.793 101.652 304.45 101.652ZM304.45 115.075C300.793 115.075 297.994 112.552 297.669 109.034H311.231C310.907 112.552 308.107 115.075 304.45 115.075Z" fill="#45546F" stroke="#45546F" stroke-width="0.216"/>
</svg>
