<svg width="150" height="152" viewBox="0 0 150 152" fill="none" xmlns="http://www.w3.org/2000/svg">
<path fill-rule="evenodd" clip-rule="evenodd" d="M89.9634 130.7C86.8584 130.7 84.3384 128.18 84.3384 125.075V106.048C84.3384 102.943 86.8584 100.423 89.9634 100.423C93.0684 100.423 95.5884 102.943 95.5884 106.048V125.075C95.5884 128.18 93.0684 130.7 89.9634 130.7Z" fill="#E3E5E8"/>
<mask id="mask0" mask-type="alpha" maskUnits="userSpaceOnUse" x="15" y="34" width="150" height="78">
<path fill-rule="evenodd" clip-rule="evenodd" d="M15 34.3501H164.923V111.683H15V34.3501Z" fill="white"/>
</mask>
<g mask="url(#mask0)">
<path fill-rule="evenodd" clip-rule="evenodd" d="M26.25 85.4476C44.07 95.1301 66.54 100.433 89.925 100.433C113.355 100.433 135.848 95.1301 153.675 85.4476V62.9326C153.675 53.3701 145.943 45.6001 136.425 45.6001H43.575C34.02 45.6001 26.25 53.3401 26.25 62.8576V85.4476ZM89.925 111.683C63.3375 111.683 37.71 105.248 17.7825 93.5776C16.0575 92.5726 15 90.7276 15 88.7251V62.8576C15 47.1376 27.8175 34.3501 43.575 34.3501H136.425C152.145 34.3501 164.925 47.1676 164.925 62.9326V88.7251C164.925 90.7276 163.86 92.5726 162.143 93.5776C142.215 105.248 116.565 111.683 89.925 111.683Z" fill="#E3E5E8"/>
</g>
<mask id="mask1" mask-type="alpha" maskUnits="userSpaceOnUse" x="58" y="15" width="64" height="31">
<path fill-rule="evenodd" clip-rule="evenodd" d="M58.0884 15.0015H121.838V45.5707H58.0884V15.0015Z" fill="white"/>
</mask>
<g mask="url(#mask1)">
<path fill-rule="evenodd" clip-rule="evenodd" d="M116.213 45.5707C113.108 45.5707 110.588 43.0507 110.588 39.9457V37.2007C110.588 31.1632 105.676 26.2507 99.6384 26.2507H80.2884C74.2509 26.2507 69.3384 31.1632 69.3384 37.2007V39.9457C69.3384 43.0507 66.8184 45.5707 63.7134 45.5707C60.6084 45.5707 58.0884 43.0507 58.0884 39.9457V37.2007C58.0884 24.9607 68.0484 15.0007 80.2884 15.0007H99.6384C111.878 15.0007 121.838 24.9607 121.838 37.2007V39.9457C121.838 43.0507 119.318 45.5707 116.213 45.5707Z" fill="#E3E5E8"/>
</g>
<path fill-rule="evenodd" clip-rule="evenodd" d="M133.459 163.051H46.4593C30.8968 163.051 17.7943 150.894 16.6168 135.369L15.1918 116.551C14.9593 113.454 17.2843 110.746 20.3818 110.514C23.4943 110.401 26.1793 112.599 26.4193 115.704L27.8368 134.514C28.5718 144.204 36.7468 151.801 46.4593 151.801H133.459C143.172 151.801 151.354 144.204 152.082 134.514L153.507 115.704C153.747 112.599 156.499 110.394 159.544 110.514C162.642 110.746 164.959 113.454 164.727 116.551L163.302 135.369C162.124 150.894 149.022 163.051 133.459 163.051Z" fill="#E3E5E8"/>
</svg>
